HIERARCHY
ROOT Hips
{
  OFFSET 0.000000 0.000000 0.000000
  CHANNELS 6 Xposition Yposition Zposition Xrotation Yrotation Zrotation
  JOINT Spine
  {
    OFFSET 0.211591 24.227834 -3.764787
    CHANNELS 3 Xrotation Yrotation Zrotation
    JOINT Chest
    {
      OFFSET 0.211591 24.227834 -3.764787
      CHANNELS 3 Xrotation Yrotation Zrotation
      JOINT Neck
      {
        OFFSET -1.100772 8.441563 -3.430650
        CHANNELS 3 Xrotation Yrotation Zrotation
        JOINT Head
        {
          OFFSET -1.192129 7.757112 -7.601908
          CHANNELS 3 Xrotation Yrotation Zrotation
          End Site
          {
            OFFSET -0.357639 2.327134 -2.280572
          }
        }
      }
      JOINT LeftShoulder
      {
        OFFSET 17.192089 0.613400 -1.554494
        CHANNELS 3 Xrotation Yrotation Zrotation
        JOINT LeftArm
        {
          OFFSET 6.822346 -20.001605 -11.416031
          CHANNELS 3 Xrotation Yrotation Zrotation
          JOINT LeftForeArm
          {
            OFFSET -10.811707 -3.287858 -20.004664
            CHANNELS 3 Xrotation Yrotation Zrotation
            JOINT LeftHand
            {
              OFFSET -2.972239 -0.032078 -2.791873
              CHANNELS 3 Xrotation Yrotation Zrotation
              End Site
              {
                OFFSET -0.891672 -0.009623 -0.837562
              }
            }
          }
        }
      }
      JOINT RightShoulder
      {
        OFFSET -17.192089 -0.613400 1.554494
        CHANNELS 3 Xrotation Yrotation Zrotation
        JOINT RightArm
        {
          OFFSET -7.078612 -20.128798 -9.457155
          CHANNELS 3 Xrotation Yrotation Zrotation
          JOINT RightForeArm
          {
            OFFSET 6.068787 -1.370308 -22.325569
            CHANNELS 3 Xrotation Yrotation Zrotation
            JOINT RightHand
            {
              OFFSET 2.627653 0.279547 -3.282648
              CHANNELS 3 Xrotation Yrotation Zrotation
              End Site
              {
                OFFSET 0.788296 0.083864 -0.984794
              }
            }
          }
        }
      }
    }
  }
  JOINT LeftUpLeg
  {
    OFFSET 11.367086 0.027478 -2.758015
    CHANNELS 3 Xrotation Yrotation Zrotation
    JOINT LeftLeg
    {
      OFFSET 2.451199 -39.057141 -4.768226
      CHANNELS 3 Xrotation Yrotation Zrotation
      JOINT LeftFoot
      {
        OFFSET 10.058204 -39.973237 0.774249
        CHANNELS 3 Xrotation Yrotation Zrotation
        End Site
        {
          OFFSET 3.017461 -11.991971 0.232275
        }
      }
    }
  }
  JOINT RightUpLeg
  {
    OFFSET -11.367086 -0.027478 2.758015
    CHANNELS 3 Xrotation Yrotation Zrotation
    JOINT RightLeg
    {
      OFFSET -4.668361 -37.080477 -5.635053
      CHANNELS 3 Xrotation Yrotation Zrotation
      JOINT RightFoot
      {
        OFFSET -2.542494 -41.040053 5.594103
        CHANNELS 3 Xrotation Yrotation Zrotation
        End Site
        {
          OFFSET -0.762748 -12.312016 1.678231
        }
      }
    }
  }
}
MOTION
Frames: 12
Frame Time: 0.083333
0.000000 60.000000 0.000000 -0.947731 0.087041 0.456756 -0.947731 0.087041 0.456756 170.239585 -1.207348 -28.759222 -19.740130 -2.834560 0.721468 118.490849 -0.168644 -2.799734 1.736840 0.323090 0.456205 7.645937 -0.590864 -0.773710 0.000000 0.000000 0.000000 0.000000 0.000000 0.000000 0.794111 -0.282190 0.002214 2.851025 -0.309081 0.159378 0.000000 0.000000 0.000000 0.000000 0.000000 0.000000 -0.842009 -0.037869 -0.138902 -2.162051 -0.530442 0.239047 0.000000 0.000000 0.000000 -3.345043 0.413070 0.052553 -1.598660 -0.038923 -0.839532 0.000000 0.000000 0.000000
0.404420 60.000000 1.105835 -0.697435 0.072172 0.388394 -0.697435 0.072172 0.388394 170.494676 -1.276634 -30.406625 -19.668194 -3.261803 0.448113 118.619128 0.286822 0.174709 1.727130 0.300571 0.481776 6.827943 -0.554870 -0.692341 0.000000 0.000000 0.000000 0.000000 0.000000 0.000000 1.046602 -0.311869 -0.114333 2.632807 -0.255006 0.145843 -11.576345 -1.605359 -7.606294 0.000000 0.000000 0.000000 -0.709012 -0.056665 0.112734 -2.064574 -0.498257 0.307541 0.000000 0.000000 0.000000 -2.846786 0.362367 -0.073015 -1.383120 -0.023124 -0.661185 0.000000 0.000000 0.000000
1.336399 60.000000 4.095054 -1.297711 0.155968 0.863712 -1.297711 0.155968 0.863712 169.873932 0.687499 16.027352 -21.088545 -7.372690 -1.901192 117.116805 4.055226 28.269744 4.794206 0.739373 1.475076 17.060041 -1.466984 -1.734552 0.000000 0.000000 0.000000 0.000000 0.000000 0.000000 3.649363 -0.860225 -0.830601 6.692520 -0.622859 0.367945 -51.881578 -7.194719 -34.089047 0.000000 0.000000 0.000000 -1.570358 -0.224632 1.142407 -5.471480 -1.254193 1.622955 0.000000 0.000000 0.000000 -6.760352 0.902334 -0.652536 -3.438087 -0.020021 -1.404408 0.000000 0.000000 0.000000
2.260113 60.000000 8.201629 -0.519397 0.102127 0.610902 -0.519397 0.102127 0.610902 170.646017 2.041158 45.987757 -21.865252 -14.008123 -5.844280 115.820930 10.241427 62.218061 6.650384 0.772036 2.415794 19.823885 -1.949415 -2.029175 0.000000 0.000000 0.000000 0.000000 0.000000 0.000000 6.869982 -0.923422 -2.827398 7.819136 -0.812956 0.423600 -73.021498 -14.201750 -64.523741 0.000000 0.000000 0.000000 -0.705970 -0.494326 3.725709 -6.932659 -1.367476 4.759228 0.000000 0.000000 0.000000 -7.149568 1.098971 -2.443550 -4.258186 0.063515 -1.145718 0.000000 0.000000 0.000000
2.612822 60.000000 12.603205 -0.718360 0.012630 0.045279 -0.718360 0.012630 0.045279 170.393096 3.183639 66.590399 -21.510084 -18.305273 -8.665607 114.239641 13.769490 69.446381 6.906099 0.839514 2.429007 21.794850 -2.389009 -2.254487 0.000000 0.000000 0.000000 0.000000 0.000000 0.000000 8.444821 -0.206886 -5.047744 7.566195 -1.362591 0.409243 56.096240 -10.485649 -37.289464 0.000000 0.000000 0.000000 3.115328 -0.724711 5.772499 -6.885126 -1.091831 7.955547 0.000000 0.000000 0.000000 -8.259432 1.418493 -5.261918 -6.466915 -0.010914 -1.915712 0.000000 0.000000 0.000000
2.479909 60.000000 14.737109 -1.198781 -0.064741 -0.445162 -1.198781 -0.064741 -0.445162 169.822350 4.120959 76.657833 -18.684100 -19.497617 -10.551564 114.781565 14.753405 73.915087 6.640249 2.103659 0.252094 26.258675 -3.192661 -2.782663 0.000000 0.000000 0.000000 0.000000 0.000000 0.000000 10.116491 -1.092803 -4.455325 8.775586 -1.955291 0.451782 92.487065 -17.287913 -61.479932 0.000000 0.000000 0.000000 11.847397 -0.963644 7.416176 -7.172093 -1.300231 5.896885 0.000000 0.000000 0.000000 -10.119182 1.787477 -8.973350 -11.057097 -0.380296 -4.037288 0.000000 0.000000 0.000000
2.522454 60.000000 14.161507 -1.489170 -0.150913 -0.991462 -1.489170 -0.150913 -0.991462 169.361014 5.692296 92.779131 -17.146963 -22.183650 -12.981340 113.083529 17.103048 74.567135 3.164406 3.742121 -4.304008 30.540228 -3.536743 -3.317923 0.000000 0.000000 0.000000 0.000000 0.000000 0.000000 8.782881 -4.120402 1.484853 9.664541 -2.945604 0.448680 0.000000 0.000000 0.000000 0.000000 0.000000 0.000000 20.083977 -1.055040 7.726355 -5.898344 -1.112674 5.089765 0.000000 0.000000 0.000000 -12.441394 1.987287 -10.559612 -17.849107 -0.803467 -6.518230 0.000000 0.000000 0.000000
2.893939 60.000000 12.618531 -0.299446 -0.319277 -2.100094 -0.299446 -0.319277 -2.100094 170.244324 6.781368 108.369328 -18.501771 -23.365011 -13.225092 110.352869 17.674517 67.658094 1.443481 3.957523 -5.782604 30.051932 -3.625038 -3.260207 0.000000 0.000000 0.000000 0.000000 0.000000 0.000000 8.859856 -6.508281 5.521737 12.337781 -3.689567 0.512384 0.000000 0.000000 0.000000 0.000000 0.000000 0.000000 18.215656 -0.974286 7.517417 -6.618010 -1.229478 5.420348 0.000000 0.000000 0.000000 -10.089956 2.094382 -12.661558 -18.737108 -0.269157 -4.751810 0.000000 0.000000 0.000000
3.489879 60.000000 10.741720 1.170971 -0.590453 -4.032429 1.170971 -0.590453 -4.032429 171.420703 5.671195 103.841434 -22.055667 -20.471538 -9.821463 109.372511 14.096280 55.838568 2.178274 2.950089 -3.731381 27.858346 -2.740411 -2.959877 0.000000 0.000000 0.000000 0.000000 0.000000 0.000000 8.176562 -3.857581 1.459816 9.275641 -2.984115 0.450510 0.000000 0.000000 0.000000 0.000000 0.000000 0.000000 11.668509 -1.049636 7.899457 -8.920120 -1.587033 6.570979 0.000000 0.000000 0.000000 -4.456746 2.251241 -15.175668 -16.257052 0.261025 -2.778114 0.000000 0.000000 0.000000
4.577485 60.000000 9.958374 3.075227 -0.573399 -4.252678 3.075227 -0.573399 -4.252678 173.652385 3.342107 91.222815 -24.240585 -16.943749 -6.856273 110.724098 10.991523 49.176284 5.772406 2.054348 -0.074071 27.694708 -2.009439 -2.933814 0.000000 0.000000 0.000000 0.000000 0.000000 0.000000 6.351122 -1.550275 -1.395541 6.307643 -1.835459 0.345853 0.000000 0.000000 0.000000 0.000000 0.000000 0.000000 7.841894 -1.016975 7.895752 -9.457374 -1.484287 8.506120 0.000000 0.000000 0.000000 -2.118380 2.387536 -16.169495 -11.221846 -0.264200 -4.072054 0.000000 0.000000 0.000000
5.349533 60.000000 9.013909 4.269310 -0.398046 -3.003444 4.269310 -0.398046 -3.003444 175.139299 1.813662 64.243984 -25.297949 -12.794090 -4.048988 111.704268 7.621098 34.869809 7.537666 1.490067 1.780019 16.622453 -2.165815 -1.625163 0.000000 0.000000 0.000000 0.000000 0.000000 0.000000 4.461518 -0.244529 -2.517546 1.313863 -0.909080 0.098354 0.000000 0.000000 0.000000 0.000000 0.000000 0.000000 5.891999 -1.045114 8.143767 -11.004678 -1.647465 9.461485 0.000000 0.000000 0.000000 -3.223186 2.435768 -16.806832 -12.235222 -0.708214 -5.992626 0.000000 0.000000 0.000000
5.097302 60.000000 9.444477 5.036631 -0.074175 -0.119812 5.036631 -0.074175 -0.119812 176.039042 -0.032617 -11.995093 -23.865541 -2.532763 1.675485 113.525214 -1.157835 -6.082393 5.951921 0.836215 1.920840 4.307634 -2.050859 -0.215977 10.942319 1.523579 -8.557540 0.000000 0.000000 0.000000 -0.593117 0.368912 0.029958 -3.431706 0.026802 -0.177270 -11.316899 -2.108646 -6.939797 0.000000 0.000000 0.000000 4.035230 -1.102835 8.630411 -11.698118 -1.654122 10.504427 0.000000 0.000000 0.000000 -4.445926 2.584382 -18.303564 -13.763613 -0.470323 -5.044139 0.000000 0.000000 0.000000
